PathFileType	4	(X/Y/Z)	Walk3.trc
DataRate	CameraRate	NumFrames	NumMarkers	Units	OrigDataRate	OrigDataStartFrame	OrigNumFrames
200.000000	200.000000	8	68	mm	200.000000	981	1063
Frame#	Times		LFHD		LowerBodyModelVer		RFHD		RACR1		RCAR		LElbow		RWRU		RUA1		LACR1		LLFC		RASI		RFA1		LUA1		LTH3		LTB1		RTH2		LMT1		LMT5		RTH4		LTB4		LTH4		LTB3		LToe		RLFC		CLAV		STRN		LTH2		LLMAL		LASI		LTH1		PELOrigin		RTH3		LWRU		RElbow		RBack		LFA1		LPSI		RMT1		RMT5		LBHD		RPSI		LHJC		MidPelvis		OPelvis		RHJC		SACR		XPelvis		YPelvis		ZPelvis		RCAL		LCAR		C7		RToe		RLMAL		RBHD		RTB2		RTB3		RTH1		LWRR		RTB1		RTB4		RMMAL		LTB2		RElbowM		T10		RWRR		LMMAL		LCAL
			X1	Y1	Z1	X2	Y2	Z2	X3	Y3	Z3	X4	Y4	Z4	X5	Y5	Z5	X6	Y6	Z6	X7	Y7	Z7	X8	Y8	Z8	X9	Y9	Z9	X10	Y10	Z10	X11	Y11	Z11	X12	Y12	Z12	X13	Y13	Z13	X14	Y14	Z14	X15	Y15	Z15	X16	Y16	Z16	X17	Y17	Z17	X18	Y18	Z18	X19	Y19	Z19	X20	Y20	Z20	X21	Y21	Z21	X22	Y22	Z22	X23	Y23	Z23	X24	Y24	Z24	X25	Y25	Z25	X26	Y26	Z26	X27	Y27	Z27	X28	Y28	Z28	X29	Y29	Z29	X30	Y30	Z30	X31	Y31	Z31	X32	Y32	Z32	X33	Y33	Z33	X34	Y34	Z34	X35	Y35	Z35	X36	Y36	Z36	X37	Y37	Z37	X38	Y38	Z38	X39	Y39	Z39	X40	Y40	Z40	X41	Y41	Z41	X42	Y42	Z42	X43	Y43	Z43	X44	Y44	Z44	X45	Y45	Z45	X46	Y46	Z46	X47	Y47	Z47	X48	Y48	Z48	X49	Y49	Z49	X50	Y50	Z50	X51	Y51	Z51	X52	Y52	Z52	X53	Y53	Z53	X54	Y54	Z54	X55	Y55	Z55	X56	Y56	Z56	X57	Y57	Z57	X58	Y58	Z58	X59	Y59	Z59	X60	Y60	Z60	X61	Y61	Z61	X62	Y62	Z62	X63	Y63	Z63	X64	Y64	Z64	X65	Y65	Z65	X66	Y66	Z66	X67	Y67	Z67	X68	Y68	Z68

981	4.905	707.65	1578.7	-54.244	9	2014	4	709.89	1575.1	43.764	593.71	1370.5	163.12	657.43	801.76	346.94	494.61	1066.2	-293.73	603.6	843.31	350.7	559.49	1228.4	254.35	601.73	1347.8	-197.82	708.77	489.53	-154.39	677.94	951.21	164.23	605.9	952	321.74	568.02	1201.9	-269.64	711.33	564.62	-175.47	744.43	337.21	-50.235	636.2	615.94	193.14	827.5	35.946	-40.278	810.57	26.085	-130.91	578.89	622.83	209.33	735.45	252.34	-56.209	700.61	648.2	-202.76	733.53	166.45	-59.219	869.88	31.001	-40.251	550.41	447.99	189.22	671.35	1334.5	-14.605	738.3	1217.7	-5.8178	749.66	663.02	-170.37	693.01	69.17	-122.32	690.95	956.34	-181.66	692.3	729.58	-227.36	684.44	953.78	-8.7128	566.46	537.62	196.53	443.88	831.7	-355.07	522.31	1066.5	297.32	453.81	1305.5	90.811	508.37	934.77	-330.12	450.79	970.72	-113.55	353.11	44.922	74.077	341.11	38.33	160.97	556.88	1552	-79.049	428.78	968.25	20.134	602.08	849.95	-131.14	562.12	961.63	-27.711	684.44	953.78	-8.7128	593.23	846.46	104.06	439.79	969.49	-46.708	764.24	948.82	-5.7847	689.36	1033.6	-7.3438	681.44	952.59	71.222	225.67	165.96	122.78	461.55	773.39	-356.07	509.12	1406.3	-7.3496	387.76	27.69	79.389	286.89	153.72	167.24	540.4	1556.6	55.71	456.91	285.89	176.06	403.05	213.31	116.8	603.22	703.26	219.83	496.32	812.36	-305.95	535.1	324.79	113.37	469.08	269.05	115.09	309.02	152.58	83.897	737.89	256.11	-118.22	497.13	1043.4	210.72	461.18	1074.8	-20.805	652.92	855.03	296.75	702.4	74.115	-37.25	638.14	29.436	-82.631
982	4.91	712.38	1579.2	-55.491	9	2014	4	714.43	1575.7	42.528	597.88	1371.6	161.75	658.43	801.46	345.08	500.95	1066.3	-294.91	604.93	843.51	348.8	563.12	1229.6	253.05	606.61	1348.4	-198.98	710.77	489.6	-155.1	682.86	952.87	163.16	608.09	952.3	320.04	574.06	1202.1	-270.64	714.09	564.86	-176.18	746.01	337.06	-51.021	643.39	616.83	193.57	827.44	35.983	-40.323	810.61	26.088	-131.06	585.94	623.19	209.57	736.41	252.26	-56.765	703.7	648.4	-203.67	734.01	166.36	-59.537	869.89	30.991	-40.352	559.49	448.33	189.87	675.81	1335.3	-15.833	742.79	1218.8	-7.313	753.08	663.05	-171.62	693.09	69.137	-122.48	695.59	957.56	-182.63	695.81	729.75	-228.54	689.23	955.21	-9.7336	574.56	537.76	196.92	451.29	831.58	-356.17	525.34	1067.4	295.37	458.08	1306.5	89.382	515.28	934.87	-330.92	455.37	971.28	-113.67	357.01	46.336	74.659	345.09	40.727	161.3	561.61	1552.8	-80.529	433.5	968.49	19.95	607.2	850.92	-131.92	566.83	962.55	-28.296	689.23	955.21	-9.7336	598.55	847.72	103.22	444.44	969.89	-46.859	769.04	950.57	-6.8596	693.82	1035.1	-8.4801	686.28	954.13	70.205	232.31	171	122.57	469.01	773.25	-356.78	513.44	1406.9	-8.8543	390.93	27.861	80.219	293.14	157.56	167.17	544.89	1557.5	54.184	464.61	287.39	176.45	410.15	215.5	116.89	609.18	703.94	219.99	503.18	812.43	-306.45	543.22	325.47	114.2	476.68	270.49	115.55	315.39	155.82	83.942	738.76	255.87	-118.79	500.73	1044.6	208.49	465.79	1075.3	-21.43	654.55	854.99	295.07	702.44	74.192	-37.492	638.11	29.451	-82.801
983	4.915	717.09	1579.7	-56.7	9	2014	4	718.97	1576.3	41.329	601.99	1372.6	160.42	659.41	801.15	343.19	507.3	1066.5	-296.1	606.26	843.72	346.91	566.77	1230.7	251.82	611.44	1349.1	-200.11	712.51	489.64	-155.8	687.73	954.49	162.23	610.28	952.6	318.37	580.1	1202.4	-271.62	716.74	565.06	-176.76	747.48	336.92	-51.84	650.55	617.77	193.97	827.38	36.039	-40.376	810.64	26.092	-131.19	592.97	623.57	209.79	737.31	252.19	-57.349	706.64	648.53	-204.5	734.47	166.29	-59.89	869.9	31.02	-40.463	568.6	448.73	190.48	680.25	1336.2	-17.023	747.26	1219.8	-8.7564	756.33	663.05	-172.82	693.14	69.1	-122.63	700.2	958.77	-183.56	699.15	729.81	-229.71	693.96	956.63	-10.663	582.66	537.94	197.26	458.84	831.44	-357.28	528.37	1068.3	293.48	462.32	1307.4	87.955	522.27	934.98	-331.74	459.91	971.85	-113.76	361.53	47.857	75.357	349.53	43.286	161.74	566.33	1553.5	-81.967	438.2	968.75	19.795	612.27	851.86	-132.64	571.51	963.46	-28.822	693.96	956.63	-10.663	603.79	848.95	102.49	449.06	970.3	-46.982	773.8	952.3	-7.8374	698.25	1036.5	-9.5211	691.08	955.64	69.279	239.17	175.78	122.22	476.67	773.11	-357.52	517.7	1407.6	-10.342	394.72	28.124	81.249	299.62	161.34	167.01	549.38	1558.3	52.7	472.42	288.93	176.76	417.42	217.7	116.91	615.09	704.63	220.15	510.22	812.52	-306.99	551.48	326.2	114.97	484.45	271.95	115.94	322.01	158.97	83.904	739.47	255.65	-119.39	504.31	1045.9	206.33	470.38	1075.9	-22.014	656.14	854.93	293.36	702.48	74.265	-37.722	638.08	29.46	-82.957
984	4.92	721.81	1580.2	-57.873	9	2014	4	723.51	1576.8	40.167	606.04	1373.6	159.14	660.38	800.82	341.26	513.65	1066.6	-297.29	607.6	843.93	345.04	570.43	1231.8	250.65	616.23	1349.7	-201.2	714.05	489.66	-156.49	692.53	956.08	161.43	612.47	952.89	316.71	586.14	1202.7	-272.59	719.26	565.22	-177.23	748.85	336.79	-52.676	657.67	618.76	194.36	827.32	36.108	-40.435	810.65	26.093	-131.31	599.97	623.97	209.99	738.14	252.13	-57.951	709.44	648.6	-205.25	734.92	166.22	-60.272	869.89	31.075	-40.579	577.72	449.21	191.04	684.67	1337	-18.174	751.72	1220.9	-10.145	759.42	663.01	-173.93	693.16	69.06	-122.78	704.78	959.95	-184.42	702.34	729.79	-230.86	698.66	958.01	-11.496	590.76	538.15	197.58	466.54	831.27	-358.42	531.42	1069.2	291.64	466.53	1308.3	86.532	529.32	935.1	-332.58	464.42	972.42	-113.83	366.69	49.461	76.168	354.46	45.973	162.27	571.05	1554.3	-83.363	442.89	969.01	19.662	617.27	852.76	-133.31	576.16	964.37	-29.29	698.66	958.01	-11.496	608.93	850.13	101.87	453.66	970.72	-47.085	778.51	953.99	-8.7121	702.65	1037.9	-10.46	695.82	957.12	68.449	246.27	180.28	121.71	484.51	772.97	-358.31	521.92	1408.2	-11.812	399.19	28.491	82.485	306.32	165.02	166.76	553.87	1559.2	51.262	480.33	290.52	177.01	424.88	219.89	116.88	620.95	705.34	220.31	517.46	812.62	-307.59	559.87	326.97	115.67	492.37	273.43	116.27	328.91	162	83.783	740.06	255.44	-120	507.86	1047.1	204.25	474.94	1076.4	-22.561	657.71	854.86	291.62	702.53	74.335	-37.932	638.04	29.464	-83.096
985	4.925	726.52	1580.7	-59.007	9	2014	4	728.05	1577.4	39.043	610.04	1374.7	157.91	661.35	800.47	339.3	519.99	1066.7	-298.5	608.97	844.14	343.2	574.1	1233	249.53	620.98	1350.3	-202.27	715.4	489.66	-157.15	697.26	957.61	160.77	614.68	953.17	315.08	592.16	1203	-273.55	721.65	565.35	-177.59	750.13	336.67	-53.519	664.75	619.82	194.72	827.26	36.182	-40.497	810.67	26.091	-131.42	606.93	624.42	210.15	738.93	252.08	-58.56	712.11	648.62	-205.9	735.35	166.16	-60.677	869.88	31.143	-40.697	586.83	449.77	191.56	689.06	1337.9	-19.286	756.16	1222	-11.477	762.36	662.92	-174.95	693.16	69.021	-122.9	709.34	961.1	-185.23	705.42	729.7	-231.95	703.3	959.35	-12.231	598.84	538.41	197.85	474.38	831.07	-359.58	534.49	1070.1	289.87	470.72	1309.1	85.116	536.44	935.21	-333.44	468.89	973	-113.89	372.51	51.122	77.082	359.87	48.746	162.89	575.76	1555	-84.714	447.57	969.29	19.545	622.2	853.62	-133.93	580.77	965.25	-29.702	703.3	959.35	-12.231	613.98	851.25	101.36	458.23	971.14	-47.173	783.17	955.61	-9.4806	707.02	1039.3	-11.295	700.51	958.55	67.716	253.59	184.46	121.02	492.54	772.81	-359.13	526.12	1408.8	-13.261	404.34	28.97	83.917	313.24	168.58	166.4	558.37	1560.1	49.869	488.34	292.13	177.2	432.52	222.03	116.79	626.78	706.06	220.46	524.89	812.73	-308.24	568.37	327.8	116.31	500.45	274.92	116.55	336.09	164.9	83.577	740.52	255.24	-120.62	511.39	1048.3	202.28	479.48	1077	-23.075	659.27	854.77	289.87	702.59	74.401	-38.114	638.01	29.464	-83.217
986	4.93	731.22	1581.2	-60.103	9	2014	4	732.58	1577.9	37.959	613.98	1375.7	156.72	662.32	800.11	337.31	526.33	1066.9	-299.71	610.36	844.35	341.39	577.77	1234.1	248.48	625.69	1350.9	-203.31	716.61	489.65	-157.78	701.93	959.07	160.25	616.91	953.43	313.47	598.17	1203.3	-274.5	723.91	565.44	-177.87	751.32	336.57	-54.355	671.79	620.95	195.06	827.21	36.256	-40.559	810.67	26.085	-131.52	613.85	624.91	210.28	739.67	252.02	-59.167	714.66	648.6	-206.46	735.78	166.1	-61.097	869.87	31.216	-40.817	595.9	450.44	192.03	693.44	1338.7	-20.358	760.58	1223.1	-12.751	765.16	662.8	-175.85	693.15	68.983	-123.01	713.88	962.21	-185.98	708.39	729.55	-232.95	707.9	960.64	-12.868	606.89	538.73	198.08	482.34	830.84	-360.76	537.58	1071	288.18	474.88	1309.9	83.71	543.63	935.33	-334.31	473.34	973.57	-113.95	378.98	52.812	78.08	365.77	51.562	163.58	580.46	1555.8	-86.02	452.25	969.57	19.44	627.06	854.44	-134.49	585.35	966.11	-30.061	707.9	960.64	-12.868	618.93	852.3	100.95	462.79	971.57	-47.254	787.78	957.17	-10.142	711.35	1040.6	-12.024	705.14	959.92	67.081	261.14	188.29	120.14	500.74	772.65	-360	530.29	1409.4	-14.684	410.18	29.562	85.521	320.38	171.98	165.95	562.86	1561	48.525	496.45	293.78	177.33	440.35	224.12	116.65	632.58	706.81	220.58	532.5	812.86	-308.96	577	328.69	116.91	508.67	276.41	116.78	343.56	167.63	83.288	740.89	255.06	-121.23	514.88	1049.5	200.41	484	1077.5	-23.561	660.8	854.66	288.09	702.65	74.461	-38.265	637.98	29.463	-83.318
987	4.935	735.91	1581.6	-61.16	9	2014	4	737.12	1578.4	36.913	617.87	1376.7	155.59	663.31	799.73	335.31	532.67	1066.9	-300.94	611.78	844.56	339.6	581.44	1235.2	247.48	630.37	1351.5	-204.33	717.71	489.63	-158.36	706.52	960.46	159.86	619.17	953.68	311.9	604.15	1203.5	-275.43	726.05	565.5	-178.07	752.42	336.48	-55.176	678.77	622.15	195.38	827.16	36.327	-40.621	810.67	26.075	-131.61	620.72	625.46	210.37	740.37	251.97	-59.762	717.1	648.55	-206.92	736.21	166.05	-61.528	869.86	31.286	-40.935	604.94	451.2	192.46	697.81	1339.5	-21.389	765	1224.2	-13.964	767.83	662.63	-176.63	693.12	68.948	-123.1	718.39	963.28	-186.68	711.27	729.38	-233.87	712.46	961.87	-13.41	614.89	539.12	198.28	490.42	830.57	-361.95	540.7	1071.8	286.58	479.03	1310.6	82.32	550.87	935.43	-335.2	477.76	974.13	-114	386.1	54.498	79.138	372.19	54.376	164.32	585.15	1556.5	-87.279	456.91	969.85	19.341	631.85	855.19	-135.01	589.9	966.93	-30.371	712.46	961.87	-13.41	623.78	853.28	100.64	467.34	971.99	-47.331	792.34	958.65	-10.699	715.65	1041.8	-12.651	709.72	961.22	66.541	268.93	191.74	119.08	509.12	772.46	-360.9	534.45	1410	-16.077	416.71	30.261	87.259	327.74	175.19	165.39	567.35	1561.8	47.229	504.65	295.44	177.41	448.39	226.13	116.49	638.37	707.59	220.67	540.31	813	-309.75	585.73	329.65	117.46	517.06	277.89	116.98	351.35	170.16	82.916	741.17	254.89	-121.83	518.34	1050.7	198.65	488.5	1078	-24.025	662.33	854.53	286.3	702.72	74.516	-38.382	637.95	29.461	-83.398
988	4.94	740.6	1582	-62.177	9	2014	4	741.65	1578.9	35.907	621.73	1377.7	154.52	664.31	799.34	333.28	539	1067	-302.17	613.24	844.76	337.85	585.1	1236.3	246.53	635	1352	-205.31	718.72	489.6	-158.9	711.04	961.77	159.59	621.45	953.9	310.35	610.11	1203.8	-276.35	728.07	565.53	-178.21	753.44	336.4	-55.971	685.7	623.43	195.69	827.12	36.392	-40.682	810.67	26.062	-131.69	627.54	626.07	210.42	741.03	251.91	-60.339	719.45	648.48	-207.28	736.63	166	-61.963	869.86	31.35	-41.05	613.92	452.07	192.84	702.15	1340.3	-22.38	769.4	1225.3	-15.116	770.38	662.42	-177.28	693.09	68.917	-123.17	722.88	964.29	-187.31	714.09	729.18	-234.67	716.96	963.03	-13.861	622.85	539.59	198.44	498.62	830.26	-363.14	543.86	1072.7	285.06	483.16	1311.4	80.952	558.16	935.52	-336.1	482.16	974.69	-114.07	393.83	56.155	80.222	379.12	57.146	165.11	589.84	1557.2	-88.491	461.56	970.14	19.243	636.57	855.89	-135.47	594.41	967.72	-30.636	716.96	963.03	-13.861	628.52	854.18	100.42	471.86	972.41	-47.411	796.86	960.04	-11.154	719.93	1043	-13.181	714.23	962.45	66.09	276.95	194.79	117.85	517.65	772.27	-361.85	538.6	1410.5	-17.434	423.91	31.055	89.079	335.34	178.17	164.74	571.84	1562.6	45.983	512.95	297.11	177.45	456.64	228.04	116.31	644.14	708.42	220.74	548.3	813.15	-310.61	594.57	330.65	117.97	525.61	279.35	117.14	359.46	172.47	82.461	741.38	254.73	-122.4	521.77	1051.9	197.01	492.99	1078.5	-24.473	663.85	854.38	284.5	702.8	74.564	-38.468	637.92	29.46	-83.458
